<svg width="512" height="512" viewBox="0 0 512 512" fill="none" xmlns="http://www.w3.org/2000/svg">
  <defs>
    <linearGradient id="bg" x1="72" y1="52" x2="438" y2="460" gradientUnits="userSpaceOnUse">
      <stop stop-color="#081521"/>
      <stop offset="0.55" stop-color="#123446"/>
      <stop offset="1" stop-color="#1D5665"/>
    </linearGradient>
    <linearGradient id="paper" x1="112" y1="86" x2="330" y2="402" gradientUnits="userSpaceOnUse">
      <stop stop-color="#FFF8EC"/>
      <stop offset="1" stop-color="#F4DFC0"/>
    </linearGradient>
    <linearGradient id="fold" x1="270" y1="98" x2="328" y2="158" gradientUnits="userSpaceOnUse">
      <stop stop-color="#FFD8A0"/>
      <stop offset="1" stop-color="#FFB45D"/>
    </linearGradient>
    <linearGradient id="ink" x1="142" y1="136" x2="258" y2="332" gradientUnits="userSpaceOnUse">
      <stop stop-color="#0A2335"/>
      <stop offset="1" stop-color="#214F5A"/>
    </linearGradient>
    <filter id="shadow" x="68" y="50" width="309" height="389" filterUnits="userSpaceOnUse" color-interpolation-filters="sRGB">
      <feDropShadow dx="0" dy="18" stdDeviation="18" flood-color="#051018" flood-opacity="0.28"/>
    </filter>
  </defs>

  <rect x="24" y="24" width="464" height="464" rx="112" fill="url(#bg)"/>
  <circle cx="390" cy="118" r="98" fill="#FF8A5B" opacity="0.18"/>
  <circle cx="124" cy="390" r="118" fill="#38B9AE" opacity="0.16"/>

  <g filter="url(#shadow)">
    <path d="M139 82H280L348 150V362C348 390.719 324.719 414 296 414H139C110.281 414 87 390.719 87 362V134C87 105.281 110.281 82 139 82Z" fill="url(#paper)"/>
    <path d="M280 82L348 150H302C289.85 150 280 140.15 280 128V82Z" fill="url(#fold)"/>
  </g>

  <rect x="132" y="115" width="24" height="202" rx="12" transform="rotate(-24 132 115)" fill="#35B8AB" opacity="0.18"/>
  <path d="M152 138L232 311" stroke="url(#ink)" stroke-width="34" stroke-linecap="round"/>
  <path d="M226 172H282" stroke="#2FB9AC" stroke-width="22" stroke-linecap="round"/>
  <path d="M184 234H279" stroke="#E77D5A" stroke-width="20" stroke-linecap="round"/>
  <rect x="132" y="318" width="132" height="18" rx="9" fill="#1D5060"/>
  <rect x="132" y="354" width="164" height="18" rx="9" fill="#1D5060" opacity="0.58"/>
</svg>
